<svg xmlns="http://www.w3.org/2000/svg" viewBox="0 0 320 240" fill="none">
  <defs>
    <linearGradient id="aivg" x1="0" y1="0" x2="1" y2="1">
      <stop offset="0%" stop-color="#27DCFF"></stop>
      <stop offset="55%" stop-color="#1FB8D6"></stop>
      <stop offset="100%" stop-color="#0E5A6E"></stop>
    </linearGradient>
  </defs>
  <rect width="320" height="240" fill="#FAF6EF"></rect>
  
  <rect x="110" y="30" width="100" height="180" rx="18" fill="#0A1825"></rect>
  <rect x="118" y="38" width="84" height="164" rx="10" fill="#192F3D"></rect>
  
  <rect x="128" y="58" width="64" height="48" rx="6" fill="url(#aivg)"></rect>
  <circle cx="160" cy="82" r="10" fill="#FAF6EF"></circle>
  <polygon points="156,76 156,88 168,82" fill="#192F3D"></polygon>
  <rect x="128" y="116" width="64" height="6" rx="3" fill="#FAF6EF"></rect>
  <rect x="128" y="128" width="44" height="6" rx="3" fill="#FAF6EF" opacity="0.6"></rect>
  <rect x="128" y="160" width="64" height="28" rx="8" fill="#1FB8D6"></rect>
  <text x="160" y="178" text-anchor="middle" font-family="Plus Jakarta Sans, sans-serif" font-weight="700" font-size="11" fill="#0A1825">SHOP NOW</text>
  
  <g transform="translate(70, 70)"><path d="M0 -10 L2 -2 L10 0 L2 2 L0 10 L-2 2 L-10 0 L-2 -2 Z" fill="#27DCFF"></path></g>
  <g transform="translate(250, 180)"><path d="M0 -7 L1.4 -1.4 L7 0 L1.4 1.4 L0 7 L-1.4 1.4 L-7 0 L-1.4 -1.4 Z" fill="#192F3D"></path></g>
  <g transform="translate(240, 60)"><path d="M0 -5 L1 -1 L5 0 L1 1 L0 5 L-1 1 L-5 0 L-1 -1 Z" fill="#0E9F6E"></path></g>
</svg>